<svg width="222" height="81" viewBox="0 0 222 81" fill="none" xmlns="http://www.w3.org/2000/svg">
<rect x="100" y="1" width="122" height="80" rx="20" fill="white"/>
<path d="M4.04545 65V18.4545H34.8636V26.5682H13.8864V37.6591H32.8182V45.7727H13.8864V65H4.04545ZM41.3011 65V30.0909H50.983V65H41.3011ZM46.1648 25.5909C44.7254 25.5909 43.4905 25.1136 42.4602 24.1591C41.4451 23.1894 40.9375 22.0303 40.9375 20.6818C40.9375 19.3485 41.4451 18.2045 42.4602 17.25C43.4905 16.2803 44.7254 15.7955 46.1648 15.7955C47.6042 15.7955 48.8314 16.2803 49.8466 17.25C50.8769 18.2045 51.392 19.3485 51.392 20.6818C51.392 22.0303 50.8769 23.1894 49.8466 24.1591C48.8314 25.1136 47.6042 25.5909 46.1648 25.5909ZM68.4205 44.8182V65H58.7386V30.0909H67.9659V36.25H68.375C69.1477 34.2197 70.4432 32.6136 72.2614 31.4318C74.0795 30.2348 76.2841 29.6364 78.875 29.6364C81.2992 29.6364 83.4129 30.1667 85.2159 31.2273C87.0189 32.2879 88.4205 33.803 89.4205 35.7727C90.4205 37.7273 90.9205 40.0606 90.9205 42.7727V65H81.2386V44.5C81.2538 42.3636 80.7083 40.697 79.6023 39.5C78.4962 38.2879 76.9735 37.6818 75.0341 37.6818C73.7311 37.6818 72.5795 37.9621 71.5795 38.5227C70.5947 39.0833 69.822 39.9015 69.2614 40.9773C68.7159 42.0379 68.4356 43.3182 68.4205 44.8182Z" fill="#29374E"/>
<path d="M121.045 65V18.4545H130.886V38.9773H131.5L148.25 18.4545H160.045L142.773 39.2955L160.25 65H148.477L135.727 45.8636L130.886 51.7727V65H121.045ZM167.56 65V30.0909H177.242V65H167.56ZM172.424 25.5909C170.984 25.5909 169.75 25.1136 168.719 24.1591C167.704 23.1894 167.196 22.0303 167.196 20.6818C167.196 19.3485 167.704 18.2045 168.719 17.25C169.75 16.2803 170.984 15.7955 172.424 15.7955C173.863 15.7955 175.09 16.2803 176.106 17.25C177.136 18.2045 177.651 19.3485 177.651 20.6818C177.651 22.0303 177.136 23.1894 176.106 24.1591C175.09 25.1136 173.863 25.5909 172.424 25.5909ZM203.95 30.0909V37.3636H182.927V30.0909H203.95ZM187.7 21.7273H197.382V54.2727C197.382 55.1667 197.518 55.8636 197.791 56.3636C198.063 56.8485 198.442 57.1894 198.927 57.3864C199.427 57.5833 200.003 57.6818 200.654 57.6818C201.109 57.6818 201.563 57.6439 202.018 57.5682C202.473 57.4773 202.821 57.4091 203.063 57.3636L204.586 64.5682C204.101 64.7197 203.42 64.8939 202.541 65.0909C201.662 65.303 200.594 65.4318 199.336 65.4773C197.003 65.5682 194.957 65.2576 193.2 64.5455C191.457 63.8333 190.101 62.7273 189.132 61.2273C188.162 59.7273 187.685 57.8333 187.7 55.5455V21.7273Z" fill="#0962E8"/>
</svg>
